<svg width="258" height="258" viewBox="0 0 258 258" fill="none" xmlns="http://www.w3.org/2000/svg">
<path d="M128.775 257.429C57.671 257.429 0 199.785 0 128.714C0 57.6438 57.671 0 128.775 0C199.879 0 257.55 57.6438 257.55 128.714C257.55 199.785 199.943 257.429 128.775 257.429Z" fill="#1D1D1F"/>
<path d="M59.8668 184.099C59.8668 184.099 62.7084 180.097 68.004 173.383C69.2956 171.705 70.781 169.833 72.3955 167.832C74.0101 165.831 75.7538 163.636 77.6266 161.377C79.4995 159.118 81.5015 156.6 83.6973 154.083C84.7951 152.792 85.893 151.501 86.9909 150.21C87.2492 149.887 87.5721 149.564 87.8305 149.177L88.2825 148.66L88.4763 148.402L88.5409 148.338C88.67 148.144 88.4117 148.531 88.4763 148.467L88.5409 148.338C88.4117 148.467 88.3471 148.596 88.2825 148.725C88.2179 148.854 88.2179 148.919 88.1534 148.983C88.0888 149.177 88.0888 149.371 88.0888 149.5C88.0888 149.887 88.2179 150.145 88.4117 150.403C88.6054 150.662 88.8637 150.92 89.2512 151.049C89.5741 151.178 90.0908 151.178 90.2199 151.113C83.1806 153.114 75.56 155.245 67.4228 157.246C66.9061 157.375 66.3895 157.504 65.8728 157.633L65.0979 157.827L64.6458 157.956H64.452C64.452 157.956 64.2583 157.956 64.1291 158.02C64 158.02 63.8062 158.02 63.6771 158.02C63.3542 158.02 63.1604 157.956 62.9021 157.891C61.9334 157.633 61.0938 156.988 60.6418 156.213C60.1251 155.438 59.9314 154.535 59.9959 153.631C60.0605 152.663 60.5772 151.694 61.2876 151.113C61.6105 150.855 62.1271 150.532 62.1271 150.532L62.5146 150.339C64.452 149.371 66.3895 148.338 68.3269 147.369C72.2664 145.368 76.2704 143.367 80.339 141.302C84.4076 139.236 88.5409 137.17 92.7386 134.911C96.9364 132.716 101.005 130.393 105.267 128.004C105.719 127.746 106.365 127.681 106.947 127.875C107.205 127.94 107.463 128.133 107.721 128.262C107.786 128.327 107.851 128.392 107.851 128.392L107.915 128.456L108.044 128.65L109.271 129.941C110.111 130.78 110.951 131.684 111.79 132.587C113.469 134.33 115.148 136.073 116.892 137.751C118.636 139.494 120.315 141.173 122.058 142.915L127.29 148.015L132.521 153.114L132.714 153.244L132.779 153.308L132.908 153.437C133.231 153.825 133.425 154.212 133.554 154.664C133.812 155.503 133.748 156.536 133.231 157.31C133.166 157.439 133.102 157.504 133.037 157.633L132.908 157.827L132.779 158.02L132.521 158.408L132.004 159.182L129.808 162.087C128.323 164.024 126.838 165.96 125.352 167.832C123.867 169.704 122.381 171.641 120.896 173.513C117.925 177.256 114.955 181 112.048 184.68C110.563 186.487 109.142 188.359 107.657 190.167L107.14 190.812L107.011 191.006L106.688 191.393C106.43 191.651 106.042 191.909 105.784 192.103C105.526 192.232 105.267 192.361 104.944 192.49C103.782 192.878 102.555 192.813 101.522 192.297C100.488 191.845 99.5842 190.941 99.1968 189.779C99.003 189.198 98.8738 188.617 98.8738 188.101V187.585L98.9384 186.745L99.003 185.003C99.1967 180.419 99.3905 175.965 99.5842 171.576C99.6488 170.479 99.7134 169.381 99.778 168.284L99.8426 167.445V167.316C99.8426 167.832 99.8426 167.38 99.8426 167.445C99.8426 167.574 99.8426 167.703 99.9071 167.832C99.9071 167.961 99.9717 168.026 99.9717 168.09C99.9717 168.155 100.036 168.219 100.036 168.284C100.101 168.413 100.165 168.542 100.23 168.671C100.553 169.188 101.07 169.575 101.586 169.704C102.167 169.898 102.813 169.833 103.395 169.575C103.459 169.575 103.524 169.51 103.588 169.51C103.653 169.51 103.782 169.381 103.717 169.446L103.524 169.575L103.201 169.769L102.555 170.22C102.103 170.543 101.651 170.801 101.199 171.06C100.295 171.641 99.4551 172.221 98.5509 172.802C91.5116 177.386 84.7951 181.581 78.5953 185.454C72.3955 189.263 66.6478 192.813 61.5459 195.847C59.0272 197.396 56.6377 198.816 54.3774 200.107C52.1816 201.398 50.115 202.625 48.2422 203.658C47.7901 203.916 47.338 204.174 46.886 204.432L46.5631 204.626L46.4985 204.691C46.3047 204.82 46.4339 204.755 46.3693 204.755H46.3047C46.2401 204.82 46.2401 204.82 46.111 204.82C45.9818 204.884 45.7881 204.949 45.6589 204.949C45.5297 204.949 45.4006 204.949 45.2714 205.013C45.0131 205.013 44.7548 204.949 44.4964 204.884C43.5923 204.561 43.0111 203.722 42.9465 202.819C42.9465 202.367 43.0757 201.915 43.2694 201.592C43.334 201.528 43.3986 201.463 43.4631 201.334C43.5277 201.269 43.5923 201.205 43.5923 201.14L43.8506 200.947C45.0777 199.785 46.0464 198.816 46.886 198.042C48.5651 196.493 49.4692 195.653 49.4692 195.653L49.9859 196.105C49.9859 196.105 49.2755 197.074 47.8547 198.946C47.1443 199.849 46.3047 200.947 45.2714 202.302C44.8839 202.754 45.0777 202.689 45.0777 202.689C45.0777 202.689 45.2068 202.754 45.1423 202.689C45.1423 202.689 45.1423 202.689 45.0777 202.689C45.0131 202.689 45.0131 202.689 44.9485 202.689C44.9485 202.689 45.0131 202.625 45.0777 202.625H45.1423C45.1423 202.625 45.2714 202.56 45.0777 202.689L45.1423 202.625L45.4652 202.367C45.8527 202.044 46.3047 201.721 46.6922 201.398C48.3713 200.107 50.2442 198.687 52.3108 197.138C54.3774 195.589 56.5731 193.911 58.9626 192.168C63.7417 188.617 69.1665 184.68 75.1079 180.419C81.0494 176.224 87.5075 171.641 94.4177 166.864C95.2573 166.283 96.1614 165.702 97.001 165.056L98.2926 164.153L98.9384 163.701L99.2613 163.443L99.4551 163.313L99.778 163.12C99.9071 163.055 100.036 162.991 100.165 162.926C101.199 162.474 102.426 162.345 103.524 162.668C104.622 162.991 105.526 163.701 106.172 164.669C106.301 164.927 106.43 165.185 106.559 165.444C106.624 165.573 106.688 165.702 106.688 165.831C106.753 165.96 106.753 166.089 106.817 166.283C106.882 166.476 106.882 166.67 106.882 166.864V167.057V167.445V167.574L106.817 168.413C106.753 169.51 106.688 170.608 106.624 171.705C106.365 176.095 106.107 180.549 105.784 185.132L105.655 186.875L105.59 187.714V187.907V188.036C105.59 188.166 105.59 188.101 105.59 188.036C105.59 187.778 105.526 187.455 105.461 187.197C104.944 185.971 103.782 185.454 102.555 185.842C102.426 185.906 102.232 185.971 102.103 186.035C101.974 186.1 101.651 186.358 101.522 186.487L101.586 186.423C101.522 186.487 101.845 186.164 101.457 186.552L101.586 186.358L102.167 185.713C103.653 183.97 105.203 182.162 106.753 180.419C109.853 176.869 112.953 173.254 116.052 169.639C117.602 167.832 119.217 166.025 120.831 164.217C122.446 162.41 124.061 160.602 125.675 158.795L128.129 156.084L128.775 155.438L129.098 155.116L129.227 154.922C129.227 154.986 129.162 154.986 129.162 155.051C129.033 155.309 128.969 155.632 129.098 155.955C129.162 156.084 129.227 156.213 129.356 156.342C129.421 156.407 129.292 156.213 129.356 156.342L129.292 156.277L129.162 156.084L124.448 150.532L119.734 144.981C118.119 143.174 116.569 141.302 114.955 139.494C113.34 137.687 111.725 135.879 110.111 134.072C109.271 133.168 108.496 132.265 107.657 131.425L106.43 130.07L106.236 129.812H106.172C102.103 132.135 97.9051 134.524 93.9011 137.041C89.8971 139.494 85.9576 142.012 82.0827 144.465C78.2079 146.918 74.4621 149.371 70.781 151.759C68.9082 152.921 67.0999 154.083 65.227 155.245C65.0333 155.309 64.5812 155.696 65.0333 155.309C65.3562 155.051 65.6145 154.599 65.6145 154.147C65.6791 153.695 65.5499 153.373 65.3562 153.05C65.1624 152.727 64.775 152.404 64.3229 152.275C64.1937 152.211 64.1291 152.211 63.9354 152.211C63.8708 152.211 63.7417 152.211 63.6771 152.211C63.6125 152.211 63.4187 152.275 63.5479 152.211L63.7416 152.146C63.225 152.275 63.6771 152.146 63.5479 152.146H63.6125L64.3875 151.953C64.9041 151.823 65.4208 151.63 65.8728 151.501C73.9455 149.177 81.6307 147.305 88.7346 145.562C89.3804 145.368 90.2845 145.368 91.0595 145.627C91.8345 145.885 92.5449 146.401 92.997 147.047C93.449 147.692 93.7073 148.402 93.7719 149.241C93.7719 149.629 93.7719 150.081 93.6428 150.468C93.5782 150.662 93.5136 150.855 93.449 151.049C93.3198 151.307 93.1907 151.501 93.0615 151.759L92.9324 151.888C92.9324 151.888 92.6095 152.275 92.7386 152.146L92.674 152.211L92.4157 152.469L91.9637 152.921C91.6407 153.244 91.3824 153.566 91.0595 153.889C89.8325 155.18 88.67 156.407 87.5075 157.633C85.2472 160.086 82.9869 162.281 80.9203 164.411C78.8537 166.541 76.9162 168.542 75.0434 170.35C73.2351 172.157 71.556 173.835 70.006 175.32C63.8708 181.323 60.2543 184.551 60.2543 184.551L59.8668 184.099Z" fill="#FEDC00"/>
<path d="M118.119 125.164C118.119 125.164 121.8 128.133 127.806 133.556C129.356 134.911 130.971 136.46 132.779 138.139C134.587 139.817 136.525 141.624 138.527 143.561C140.593 145.497 142.725 147.628 144.985 149.887C146.083 150.984 147.245 152.146 148.472 153.308L148.666 153.502L148.795 153.631C148.86 153.695 148.537 153.373 148.731 153.566L148.795 153.631L148.86 153.695C148.795 153.631 148.731 153.566 148.666 153.566L148.537 153.502L148.472 153.437C148.214 153.308 147.956 153.244 147.697 153.244C147.439 153.244 147.181 153.373 146.922 153.566C146.858 153.631 146.793 153.631 146.793 153.695L146.729 153.76L147.051 153.179C148.86 150.21 150.733 147.111 152.735 143.948C154.737 140.785 156.803 137.493 159.064 134.201C163.52 127.617 168.622 120.904 173.853 113.868C176.436 110.382 179.084 106.832 181.667 103.152C184.25 99.4727 186.769 95.7288 189.158 91.8557C194.067 84.1742 198.781 76.1054 203.237 67.972C205.497 63.9053 207.758 59.8385 210.018 55.8364L210.212 55.4491L210.341 55.2554L210.406 55.1909C210.47 55.1263 210.147 55.5782 210.341 55.32L210.406 55.1263L210.47 54.9972C210.47 54.9327 210.406 55.0618 210.406 55.0618C210.277 55.1909 210.276 55.4491 210.212 55.4491C210.147 55.7718 210.212 56.1592 210.341 56.3528C210.47 56.5465 210.729 56.8047 211.116 56.8692C211.31 56.8692 211.504 56.9338 211.697 56.8692C211.762 56.8692 211.826 56.8692 211.891 56.8047L211.568 56.9983C209.566 58.1602 207.629 59.3221 205.627 60.4841C197.748 65.0672 189.933 69.5857 182.377 73.9106C174.821 78.2355 167.459 82.2377 160.355 85.9816C153.316 89.661 146.535 93.0176 140.27 96.1161C134.006 99.15 128.258 101.926 123.092 104.314C120.509 105.541 118.119 106.638 115.859 107.606C113.598 108.639 111.596 109.543 109.724 110.382C109.271 110.575 108.819 110.769 108.367 110.963L108.044 111.092L107.851 111.156L107.786 111.221H107.722C107.657 111.286 107.786 111.156 107.786 111.221C107.721 111.286 107.528 111.35 107.592 111.35C107.592 111.35 107.592 111.35 107.528 111.35C107.269 111.479 107.14 111.866 107.205 112.189C107.205 112.254 107.269 112.383 107.269 112.447C107.334 112.512 107.463 112.706 107.592 112.835C107.786 113.158 108.044 113.416 108.238 113.674C108.626 114.19 109.013 114.707 109.336 115.159C110.628 116.901 111.338 117.87 111.338 117.87L110.692 118.451C110.692 118.451 109.788 117.676 108.109 116.256C107.721 115.869 107.205 115.481 106.753 115.029C106.494 114.836 106.236 114.578 105.978 114.319C105.849 114.19 105.719 114.126 105.526 113.932C105.332 113.738 105.138 113.48 105.009 113.222C104.363 112.125 104.428 110.575 105.397 109.349C105.526 109.22 105.655 109.091 105.849 108.897C106.042 108.703 106.107 108.704 106.236 108.639C106.43 108.51 106.688 108.316 106.882 108.187C107.269 107.929 107.721 107.671 108.109 107.348C109.788 106.186 111.726 105.024 113.792 103.669C115.859 102.313 118.055 100.893 120.509 99.4082C125.288 96.3743 130.777 93.0822 136.718 89.4674C142.725 85.9171 149.183 82.044 156.157 78.1064C163.068 74.1688 170.494 70.1667 178.244 66.1645C185.994 62.1624 194.002 58.0311 202.139 53.8999C204.206 52.8671 206.208 51.8343 208.274 50.8014L208.662 50.6078C208.985 50.4787 209.308 50.285 209.695 50.2205C210.406 50.0268 211.181 49.9623 211.956 50.0268C213.506 50.2205 214.797 51.0596 215.637 52.2216C216.476 53.3189 216.928 54.9327 216.67 56.4174C216.605 56.7401 216.476 57.2565 216.283 57.6438C216.218 57.7084 216.153 57.902 216.153 57.902L216.089 57.9666L215.96 58.1602C216.089 57.9666 215.766 58.483 215.766 58.483L215.701 58.5475L215.572 58.7412L215.314 59.0639C212.601 62.8079 209.824 66.5518 207.047 70.2958C201.493 77.7837 196.133 85.3361 191.225 93.0177C188.706 96.8262 186.317 100.699 184.057 104.572C181.796 108.445 179.665 112.318 177.534 116.127C173.336 123.808 169.397 131.232 165.199 138.01C163.132 141.431 161.066 144.723 158.999 147.821C156.932 150.984 154.93 153.954 152.993 156.858L152.605 157.375L152.412 157.633C152.347 157.762 152.218 157.891 152.153 157.956C151.96 158.149 151.766 158.408 151.572 158.537C150.668 159.311 149.57 159.763 148.472 159.892C147.374 160.021 146.212 159.828 145.243 159.311L144.856 159.118C144.727 159.053 144.597 158.989 144.468 158.859C144.339 158.73 144.21 158.666 144.081 158.537C144.016 158.472 144.016 158.472 143.952 158.408L143.887 158.343L143.629 158.085L143.499 157.956L143.306 157.698C142.208 156.407 141.175 155.18 140.141 154.018C138.075 151.63 136.137 149.306 134.329 147.111C132.521 144.916 130.842 142.851 129.292 140.979C127.742 139.042 126.321 137.299 125.094 135.686C120.057 129.295 117.409 125.422 117.409 125.422L118.119 125.164Z" fill="#FEDC00"/>
</svg>
