<svg width="547" height="568" viewBox="0 0 547 568" fill="none" xmlns="http://www.w3.org/2000/svg">
<path d="M273.5 2C343.5 2.00023 400.275 58.7492 400.275 128.714C400.275 198.679 343.564 255.428 273.5 255.429C203.5 255.429 146.725 198.679 146.725 128.714C146.725 58.7491 203.5 2 273.5 2Z" stroke="#C7C7C7" stroke-opacity="0.501961" stroke-width="4"/>
<path d="M204.592 184.099C204.592 184.099 207.433 180.097 212.729 173.383C214.021 171.705 215.506 169.833 217.121 167.832C218.735 165.831 220.479 163.636 222.352 161.377C224.225 159.118 226.227 156.6 228.422 154.083C229.52 152.792 230.618 151.501 231.716 150.21C231.974 149.887 232.297 149.564 232.555 149.177L233.008 148.66L233.201 148.402L233.266 148.338C233.395 148.144 233.137 148.531 233.201 148.467L233.266 148.338C233.137 148.467 233.072 148.596 233.008 148.725C232.943 148.854 232.943 148.919 232.878 148.983C232.814 149.177 232.814 149.371 232.814 149.5C232.814 149.887 232.943 150.145 233.137 150.403C233.33 150.662 233.589 150.92 233.976 151.049C234.299 151.178 234.816 151.178 234.945 151.113C227.906 153.114 220.285 155.245 212.148 157.246C211.631 157.375 211.115 157.504 210.598 157.633L209.823 157.827L209.371 157.956H209.177C209.177 157.956 208.983 157.956 208.854 158.02C208.725 158.02 208.531 158.02 208.402 158.02C208.079 158.02 207.885 157.956 207.627 157.891C206.658 157.633 205.819 156.988 205.367 156.213C204.85 155.438 204.656 154.535 204.721 153.631C204.786 152.663 205.302 151.694 206.013 151.113C206.336 150.855 206.852 150.532 206.852 150.532L207.24 150.339C209.177 149.371 211.115 148.338 213.052 147.369C216.991 145.368 220.995 143.367 225.064 141.302C229.133 139.236 233.266 137.17 237.464 134.911C241.661 132.716 245.73 130.393 249.992 128.004C250.444 127.746 251.09 127.681 251.672 127.875C251.93 127.94 252.188 128.133 252.447 128.262C252.511 128.327 252.576 128.392 252.576 128.392L252.64 128.456L252.769 128.65L253.996 129.941C254.836 130.78 255.676 131.684 256.515 132.587C258.194 134.33 259.873 136.073 261.617 137.751C263.361 139.494 265.04 141.173 266.784 142.915L272.015 148.015L277.246 153.114L277.439 153.244L277.504 153.308L277.633 153.437C277.956 153.825 278.15 154.212 278.279 154.664C278.537 155.503 278.473 156.536 277.956 157.31C277.892 157.439 277.827 157.504 277.762 157.633L277.633 157.827L277.504 158.02L277.246 158.408L276.729 159.182L274.533 162.087C273.048 164.024 271.563 165.96 270.077 167.832C268.592 169.704 267.106 171.641 265.621 173.513C262.65 177.256 259.68 181 256.773 184.68C255.288 186.487 253.867 188.359 252.382 190.167L251.865 190.812L251.736 191.006L251.413 191.393C251.155 191.651 250.767 191.909 250.509 192.103C250.251 192.232 249.992 192.361 249.67 192.49C248.507 192.878 247.28 192.813 246.247 192.297C245.213 191.845 244.309 190.941 243.922 189.779C243.728 189.198 243.599 188.617 243.599 188.101V187.585L243.663 186.745L243.728 185.003C243.922 180.419 244.116 175.965 244.309 171.576C244.374 170.479 244.438 169.381 244.503 168.284L244.568 167.445V167.316C244.568 167.832 244.568 167.38 244.568 167.445C244.568 167.574 244.568 167.703 244.632 167.832C244.632 167.961 244.697 168.026 244.697 168.09C244.697 168.155 244.761 168.219 244.761 168.284C244.826 168.413 244.89 168.542 244.955 168.671C245.278 169.188 245.795 169.575 246.311 169.704C246.893 169.898 247.538 169.833 248.12 169.575C248.184 169.575 248.249 169.51 248.313 169.51C248.378 169.51 248.507 169.381 248.442 169.446L248.249 169.575L247.926 169.769L247.28 170.22C246.828 170.543 246.376 170.801 245.924 171.06C245.02 171.641 244.18 172.222 243.276 172.802C236.237 177.386 229.52 181.581 223.32 185.454C217.121 189.263 211.373 192.813 206.271 195.847C203.752 197.396 201.363 198.816 199.102 200.107C196.907 201.398 194.84 202.625 192.967 203.658C192.515 203.916 192.063 204.174 191.611 204.432L191.288 204.626L191.224 204.691C191.03 204.82 191.159 204.755 191.094 204.755H191.03C190.965 204.82 190.965 204.82 190.836 204.82C190.707 204.884 190.513 204.949 190.384 204.949C190.255 204.949 190.126 204.949 189.996 205.013C189.738 205.013 189.48 204.949 189.221 204.884C188.317 204.561 187.736 203.722 187.672 202.819C187.672 202.367 187.801 201.915 187.994 201.592C188.059 201.528 188.124 201.463 188.188 201.334C188.253 201.269 188.317 201.205 188.317 201.14L188.576 200.947C189.803 199.785 190.771 198.816 191.611 198.042C193.29 196.493 194.194 195.653 194.194 195.653L194.711 196.105C194.711 196.105 194.001 197.074 192.58 198.946C191.869 199.849 191.03 200.947 189.996 202.302C189.609 202.754 189.803 202.689 189.803 202.689C189.803 202.689 189.932 202.754 189.867 202.689C189.867 202.689 189.867 202.689 189.803 202.689C189.738 202.689 189.738 202.689 189.674 202.689C189.674 202.689 189.738 202.625 189.803 202.625H189.867C189.867 202.625 189.996 202.56 189.803 202.689L189.867 202.625L190.19 202.367C190.578 202.044 191.03 201.721 191.417 201.398C193.096 200.107 194.969 198.687 197.036 197.138C199.102 195.589 201.298 193.911 203.688 192.168C208.467 188.617 213.892 184.68 219.833 180.419C225.774 176.224 232.233 171.641 239.143 166.864C239.982 166.283 240.886 165.702 241.726 165.056L243.018 164.153L243.663 163.701L243.986 163.443L244.18 163.313L244.503 163.12C244.632 163.055 244.761 162.991 244.891 162.926C245.924 162.474 247.151 162.345 248.249 162.668C249.347 162.991 250.251 163.701 250.897 164.669C251.026 164.927 251.155 165.185 251.284 165.444C251.349 165.573 251.413 165.702 251.413 165.831C251.478 165.96 251.478 166.089 251.542 166.283C251.607 166.476 251.607 166.67 251.607 166.864V167.057V167.445V167.574L251.542 168.413C251.478 169.51 251.413 170.608 251.349 171.705C251.09 176.095 250.832 180.549 250.509 185.132L250.38 186.875L250.315 187.714V187.907V188.036C250.315 188.101 250.315 188.166 250.315 188.036C250.315 187.778 250.251 187.455 250.186 187.197C249.67 185.971 248.507 185.454 247.28 185.842C247.151 185.906 246.957 185.971 246.828 186.035C246.699 186.1 246.376 186.358 246.247 186.487L246.311 186.423C246.247 186.487 246.57 186.164 246.182 186.552L246.311 186.358L246.893 185.713C248.378 183.97 249.928 182.162 251.478 180.419C254.578 176.869 257.678 173.254 260.777 169.639C262.327 167.832 263.942 166.025 265.557 164.217C267.171 162.41 268.786 160.602 270.4 158.795L272.854 156.084L273.5 155.438L273.823 155.116L273.952 154.922C273.952 154.986 273.887 154.986 273.887 155.051C273.758 155.309 273.694 155.632 273.823 155.955C273.887 156.084 273.952 156.213 274.081 156.342C274.017 156.213 274.146 156.407 274.081 156.342L274.017 156.277L273.887 156.084L269.173 150.532L264.459 144.981C262.844 143.174 261.294 141.302 259.68 139.494C258.065 137.687 256.451 135.879 254.836 134.072C253.996 133.168 253.221 132.265 252.382 131.425L251.155 130.07L250.961 129.812H250.897C246.828 132.135 242.63 134.524 238.626 137.041C234.622 139.494 230.683 142.012 226.808 144.465C222.933 146.918 219.187 149.371 215.506 151.759C213.633 152.921 211.825 154.083 209.952 155.245C209.758 155.309 209.306 155.696 209.758 155.309C210.081 155.051 210.34 154.599 210.34 154.147C210.404 153.695 210.275 153.373 210.081 153.05C209.887 152.727 209.5 152.404 209.048 152.275C208.919 152.211 208.854 152.211 208.66 152.211C208.596 152.211 208.467 152.211 208.402 152.211C208.338 152.211 208.144 152.275 208.273 152.211L208.467 152.146C207.95 152.275 208.402 152.146 208.273 152.146H208.338L209.112 151.953C209.629 151.823 210.146 151.63 210.598 151.501C218.671 149.177 226.356 147.305 233.46 145.562C234.105 145.368 235.01 145.368 235.785 145.627C236.56 145.885 237.27 146.401 237.722 147.047C238.174 147.692 238.432 148.402 238.497 149.241C238.497 149.629 238.497 150.081 238.368 150.468C238.303 150.662 238.239 150.855 238.174 151.049C238.045 151.307 237.916 151.501 237.787 151.759L237.657 151.888C237.657 151.888 237.335 152.275 237.464 152.146L237.399 152.211L237.141 152.469L236.689 152.921C236.366 153.244 236.107 153.566 235.785 153.889C234.558 155.18 233.395 156.407 232.233 157.633C229.972 160.086 227.712 162.281 225.645 164.411C223.579 166.541 221.641 168.542 219.768 170.35C217.96 172.157 216.281 173.835 214.731 175.32C208.596 181.323 204.979 184.551 204.979 184.551L204.592 184.099Z" fill="#C7C7C7" fill-opacity="0.501961"/>
<path d="M262.844 125.164C262.844 125.164 266.525 128.133 272.531 133.556C274.081 134.911 275.696 136.46 277.504 138.139C279.312 139.817 281.25 141.624 283.252 143.561C285.318 145.497 287.45 147.628 289.71 149.887C290.808 150.984 291.97 152.146 293.197 153.308L293.391 153.502L293.52 153.631C293.585 153.695 293.262 153.373 293.456 153.566L293.52 153.631L293.585 153.695C293.52 153.631 293.456 153.566 293.391 153.566L293.262 153.502L293.197 153.437C292.939 153.308 292.681 153.244 292.422 153.244C292.164 153.244 291.906 153.373 291.647 153.566C291.583 153.631 291.518 153.631 291.518 153.695L291.454 153.76L291.776 153.179C293.585 150.21 295.458 147.111 297.46 143.948C299.462 140.785 301.528 137.493 303.789 134.201C308.245 127.617 313.347 120.904 318.578 113.868C321.161 110.382 323.809 106.832 326.392 103.152C328.975 99.4727 331.494 95.7288 333.883 91.8557C338.792 84.1742 343.506 76.1054 347.962 67.972C350.223 63.9053 352.483 59.8385 354.743 55.8364L354.937 55.4491L355.066 55.2554L355.131 55.1909C355.195 55.1263 354.872 55.5782 355.066 55.32L355.131 55.1263L355.195 54.9972C355.195 54.9327 355.131 55.0618 355.131 55.0618C355.002 55.1909 355.002 55.4491 354.937 55.4491C354.872 55.7718 354.937 56.1592 355.066 56.3528C355.195 56.5465 355.454 56.8047 355.841 56.8692C356.035 56.8692 356.229 56.9338 356.422 56.8692C356.487 56.8692 356.551 56.8692 356.616 56.8047L356.293 56.9983C354.291 58.1602 352.354 59.3221 350.352 60.4841C342.473 65.0672 334.658 69.5857 327.102 73.9106C319.546 78.2355 312.184 82.2377 305.08 85.9816C298.041 89.661 291.26 93.0176 284.995 96.1161C278.731 99.15 272.983 101.926 267.817 104.314C265.234 105.541 262.844 106.638 260.584 107.606C258.323 108.639 256.321 109.543 254.449 110.382C253.996 110.575 253.544 110.769 253.092 110.963L252.769 111.092L252.576 111.156L252.511 111.221H252.447C252.382 111.286 252.511 111.156 252.511 111.221C252.447 111.286 252.253 111.35 252.317 111.35C252.317 111.35 252.317 111.35 252.253 111.35C251.994 111.479 251.865 111.866 251.93 112.189C251.93 112.254 251.994 112.383 251.994 112.447C252.059 112.512 252.188 112.706 252.317 112.835C252.511 113.158 252.769 113.416 252.963 113.674C253.351 114.19 253.738 114.707 254.061 115.159C255.353 116.901 256.063 117.87 256.063 117.87L255.417 118.451C255.417 118.451 254.513 117.676 252.834 116.256C252.447 115.869 251.93 115.481 251.478 115.029C251.219 114.836 250.961 114.578 250.703 114.319C250.574 114.19 250.445 114.126 250.251 113.932C250.057 113.738 249.863 113.48 249.734 113.222C249.088 112.125 249.153 110.575 250.122 109.349C250.251 109.22 250.38 109.091 250.574 108.897C250.767 108.703 250.832 108.704 250.961 108.639C251.155 108.51 251.413 108.316 251.607 108.187C251.994 107.929 252.447 107.671 252.834 107.348C254.513 106.186 256.451 105.024 258.517 103.669C260.584 102.313 262.78 100.893 265.234 99.4082C270.013 96.3743 275.502 93.0822 281.443 89.4674C287.45 85.9171 293.908 82.044 300.882 78.1064C307.793 74.1688 315.219 70.1667 322.969 66.1645C330.719 62.1624 338.727 58.0311 346.864 53.8999C348.931 52.8671 350.933 51.8343 352.999 50.8014L353.387 50.6078C353.71 50.4787 354.033 50.285 354.42 50.2205C355.131 50.0268 355.906 49.9623 356.681 50.0268C358.231 50.2205 359.522 51.0596 360.362 52.2216C361.201 53.3189 361.653 54.9327 361.395 56.4174C361.33 56.7401 361.201 57.2565 361.008 57.6438C360.943 57.7084 360.878 57.902 360.878 57.902L360.814 57.9666L360.685 58.1602C360.814 57.9666 360.491 58.483 360.491 58.483L360.426 58.5475L360.297 58.7412L360.039 59.0639C357.326 62.8079 354.549 66.5518 351.772 70.2958C346.218 77.7837 340.858 85.3361 335.95 93.0177C333.431 96.8261 331.042 100.699 328.782 104.572C326.521 108.445 324.39 112.318 322.259 116.127C318.061 123.808 314.122 131.232 309.924 138.01C307.857 141.431 305.791 144.723 303.724 147.821C301.657 150.984 299.655 153.954 297.718 156.858L297.33 157.375L297.137 157.633C297.072 157.762 296.943 157.891 296.878 157.956C296.685 158.149 296.491 158.408 296.297 158.537C295.393 159.311 294.295 159.763 293.197 159.892C292.099 160.021 290.937 159.828 289.968 159.311L289.581 159.118C289.452 159.053 289.322 158.989 289.193 158.859C289.064 158.73 288.935 158.666 288.806 158.537C288.741 158.472 288.741 158.472 288.677 158.408L288.612 158.343L288.354 158.085L288.225 157.956L288.031 157.698C286.933 156.407 285.9 155.18 284.866 154.018C282.8 151.63 280.862 149.306 279.054 147.111C277.246 144.916 275.567 142.851 274.017 140.979C272.467 139.042 271.046 137.299 269.819 135.686C264.782 129.295 262.134 125.422 262.134 125.422L262.844 125.164Z" fill="#C7C7C7" fill-opacity="0.501961"/>
<path d="M150.537 321.762C150.537 318.47 151.119 315.501 152.281 312.854C153.444 310.207 154.993 308.077 156.995 306.463C158.933 304.85 161.129 303.559 163.518 302.72C165.908 301.88 168.426 301.429 171.01 301.429C174.949 301.429 178.566 302.268 181.988 303.946V310.078C179.211 308.142 175.918 307.238 172.043 307.238C167.974 307.238 164.422 308.465 161.452 310.918C158.481 313.37 156.995 316.985 156.931 321.762C156.931 324.796 157.706 327.378 159.256 329.508C160.806 331.703 162.679 333.252 164.939 334.22C167.199 335.189 169.589 335.64 172.172 335.64C176.305 335.64 179.663 334.672 182.247 332.671V338.868C178.824 340.546 175.078 341.385 171.074 341.385C168.491 341.385 166.037 340.998 163.647 340.159C161.258 339.32 159.062 338.158 157.06 336.544C155.058 334.995 153.508 332.865 152.346 330.347C151.119 327.765 150.537 324.925 150.537 321.762Z" fill="#C7C7C7" fill-opacity="0.501961"/>
<path d="M195.163 340.675H188.511L204.85 302.139H211.76L228.035 340.675H221.448L218.025 332.348H198.65L195.163 340.675ZM207.563 310.401L200.782 326.862H215.764L208.983 310.401C208.66 309.562 208.467 308.852 208.273 308.271C208.079 308.852 207.821 309.562 207.563 310.401Z" fill="#C7C7C7" fill-opacity="0.501961"/>
<path d="M243.147 340.675H236.882V302.139H252.317C254.255 302.139 255.999 302.332 257.678 302.72C259.357 303.107 260.907 303.752 262.392 304.656C263.877 305.56 265.04 306.786 265.879 308.4C266.719 310.014 267.171 311.95 267.171 314.145C267.171 317.373 266.331 319.89 264.588 321.762C262.844 323.634 260.584 324.86 257.807 325.506L270.142 340.611H262.586L250.961 326.281H243.147V340.675ZM243.147 307.884V320.729H252.576C254.901 320.729 256.903 320.213 258.388 319.245C259.938 318.276 260.713 316.598 260.713 314.339C260.713 312.079 259.938 310.401 258.388 309.433C256.838 308.4 254.901 307.948 252.576 307.948H243.147V307.884Z" fill="#C7C7C7" fill-opacity="0.501961"/>
<path d="M285.641 340.675H279.377V302.139H294.812C296.749 302.139 298.493 302.332 300.172 302.72C301.851 303.107 303.401 303.752 304.886 304.656C306.372 305.56 307.534 306.786 308.374 308.4C309.213 310.014 309.666 311.95 309.666 314.145C309.666 317.373 308.826 319.89 307.082 321.762C305.339 323.634 303.078 324.86 300.301 325.506L312.636 340.611H305.08L293.52 326.151H285.706V340.675H285.641ZM285.641 307.884V320.729H295.07C297.395 320.729 299.397 320.213 300.882 319.245C302.432 318.276 303.207 316.598 303.207 314.339C303.207 312.079 302.432 310.401 300.882 309.433C299.332 308.4 297.395 307.948 295.07 307.948H285.641V307.884Z" fill="#C7C7C7" fill-opacity="0.501961"/>
<path d="M320.192 328.863C319.353 326.539 318.901 324.021 318.901 321.439C318.901 318.857 319.353 316.34 320.192 314.016C321.032 311.692 322.323 309.562 323.938 307.625C325.552 305.753 327.684 304.204 330.332 303.107C332.979 302.009 335.95 301.429 339.179 301.429C342.473 301.429 345.379 302.009 348.027 303.107C350.675 304.204 352.806 305.753 354.42 307.625C356.035 309.497 357.326 311.628 358.166 314.016C359.006 316.34 359.458 318.857 359.458 321.439C359.458 324.021 359.006 326.539 358.166 328.863C357.326 331.186 356.035 333.317 354.42 335.253C352.806 337.125 350.675 338.674 348.027 339.772C345.379 340.869 342.473 341.45 339.179 341.45C335.885 341.45 332.979 340.869 330.332 339.772C327.684 338.674 325.552 337.125 323.938 335.253C322.259 333.317 321.032 331.186 320.192 328.863ZM349.448 331.445C351.837 328.734 353.064 325.377 353.064 321.439C353.064 317.502 351.837 314.145 349.448 311.434C347.058 308.723 343.635 307.367 339.179 307.367C334.788 307.367 331.365 308.723 328.911 311.434C326.457 314.145 325.294 317.502 325.294 321.439C325.294 325.377 326.521 328.734 328.911 331.445C331.365 334.156 334.723 335.511 339.179 335.511C343.571 335.511 346.993 334.156 349.448 331.445Z" fill="#C7C7C7" fill-opacity="0.501961"/>
<path d="M364.689 302.139H396.463V307.948H383.74V340.74H377.476V307.948H364.689V302.139Z" fill="#C7C7C7" fill-opacity="0.501961"/>
<path d="M150.634 350.902H161.29C164.003 350.902 166.198 351.483 167.748 352.58C169.363 353.678 170.138 355.356 170.138 357.486C170.138 359.035 169.75 360.262 168.911 361.23C168.071 362.198 167.102 362.844 166.005 363.231C167.361 363.618 168.588 364.328 169.621 365.361C170.654 366.394 171.171 367.879 171.171 369.751C171.171 370.913 170.977 371.881 170.525 372.785C170.073 373.624 169.556 374.334 168.911 374.85C168.265 375.367 167.49 375.754 166.586 376.077C165.682 376.399 164.842 376.593 164.067 376.722C163.292 376.851 162.453 376.916 161.613 376.916H150.634V350.902ZM166.973 357.938C166.973 356.453 166.457 355.42 165.488 354.839C164.455 354.194 163.034 353.936 161.032 353.936H153.734V362.005H161.871C163.357 362.005 164.584 361.682 165.552 361.036C166.521 360.326 166.973 359.358 166.973 357.938ZM168.007 369.428C168.007 366.459 165.94 364.909 161.807 364.909H153.734V373.882H160.967C161.742 373.882 162.453 373.882 162.969 373.817C163.486 373.753 164.132 373.688 164.842 373.495C165.552 373.366 166.069 373.107 166.521 372.785C166.973 372.462 167.296 372.01 167.619 371.429C167.877 370.977 168.007 370.267 168.007 369.428Z" fill="#C7C7C7" fill-opacity="0.501961"/>
<path d="M182.021 376.916H178.921V350.902H189.125C190.804 350.902 192.354 351.16 193.774 351.612C195.131 352.064 196.358 352.903 197.326 354.129C198.36 355.356 198.812 356.905 198.812 358.777C198.812 361.036 198.166 362.715 196.874 364.006C195.583 365.232 193.904 366.071 191.837 366.394L200.62 376.916H196.745L188.22 366.652H181.956V376.916H182.021ZM182.021 353.871V363.683H189.254C191.062 363.683 192.612 363.296 193.839 362.521C195.066 361.746 195.647 360.52 195.647 358.777C195.647 356.97 195.066 355.743 193.839 354.969C192.612 354.194 191.062 353.871 189.254 353.871H182.021Z" fill="#C7C7C7" fill-opacity="0.501961"/>
<path d="M206.109 368.847C205.528 367.233 205.205 365.619 205.205 363.941C205.205 362.263 205.528 360.584 206.109 359.035C206.691 357.421 207.53 356.001 208.628 354.775C209.726 353.484 211.147 352.451 212.891 351.741C214.634 350.966 216.636 350.579 218.832 350.579C221.028 350.579 223.03 350.966 224.773 351.741C226.517 352.516 227.938 353.548 229.036 354.775C230.134 356.066 230.973 357.486 231.554 359.035C232.136 360.649 232.459 362.263 232.459 363.941C232.459 365.619 232.136 367.298 231.554 368.847C230.973 370.461 230.134 371.881 229.036 373.107C227.938 374.398 226.517 375.431 224.773 376.141C223.03 376.916 221.028 377.303 218.832 377.303C216.636 377.303 214.634 376.916 212.891 376.141C211.147 375.367 209.726 374.334 208.628 373.107C207.53 371.881 206.691 370.461 206.109 368.847ZM228.648 367.814C229.1 366.588 229.294 365.297 229.294 363.941C229.294 362.586 229.1 361.294 228.648 360.068C228.196 358.842 227.615 357.744 226.775 356.711C225.936 355.743 224.838 354.904 223.482 354.323C222.126 353.742 220.576 353.419 218.897 353.419C217.217 353.419 215.667 353.742 214.311 354.323C212.955 354.904 211.857 355.679 211.018 356.711C210.178 357.68 209.532 358.842 209.145 360.068C208.693 361.294 208.499 362.586 208.499 363.941C208.499 365.297 208.693 366.588 209.145 367.814C209.597 369.041 210.178 370.138 211.018 371.171C211.857 372.139 212.955 372.978 214.311 373.559C215.667 374.14 217.217 374.463 218.897 374.463C220.576 374.463 222.126 374.14 223.482 373.559C224.838 372.978 225.936 372.204 226.775 371.171C227.55 370.138 228.196 369.041 228.648 367.814Z" fill="#C7C7C7" fill-opacity="0.501961"/>
<path d="M239.304 376.916H235.946L247.248 350.902H250.671L261.972 376.916H258.614L255.966 370.654H241.952L239.304 376.916ZM248.539 355.098L243.179 367.75H254.739L249.379 355.098C249.314 354.969 249.185 354.646 248.991 354.065C248.733 354.71 248.604 355.033 248.539 355.098Z" fill="#C7C7C7" fill-opacity="0.501961"/>
<path d="M268.301 350.902H276.826C281.282 350.902 284.64 352.064 287.03 354.452C289.419 356.841 290.582 360.003 290.582 363.877C290.582 367.75 289.419 370.913 287.03 373.301C284.64 375.689 281.282 376.851 276.826 376.851H268.301V350.902ZM284.705 371.3C286.513 369.557 287.417 367.104 287.417 363.941C287.417 360.778 286.513 358.325 284.705 356.582C282.897 354.839 280.249 353.936 276.826 353.936H271.401V374.011H276.826C280.313 373.946 282.897 373.043 284.705 371.3Z" fill="#C7C7C7" fill-opacity="0.501961"/>
<path d="M296.523 364.135C296.523 361.295 297.234 358.777 298.59 356.647C299.946 354.517 301.625 352.967 303.692 351.999C305.694 351.031 307.889 350.515 310.214 350.515C312.862 350.515 315.316 351.095 317.512 352.257V355.356C315.639 354.065 313.379 353.484 310.731 353.484C307.76 353.484 305.177 354.388 302.981 356.195C300.786 358.002 299.688 360.649 299.688 364.135C299.688 366.329 300.269 368.266 301.367 369.88C302.465 371.494 303.885 372.655 305.5 373.366C307.115 374.076 308.923 374.463 310.796 374.463C313.573 374.463 315.898 373.817 317.641 372.591V375.689C315.381 376.851 312.862 377.432 310.085 377.432C308.406 377.432 306.792 377.109 305.177 376.528C303.563 375.948 302.077 375.108 300.786 374.011C299.494 372.914 298.396 371.558 297.621 369.815C296.911 368.072 296.523 366.2 296.523 364.135Z" fill="#C7C7C7" fill-opacity="0.501961"/>
<path d="M325.326 376.916H321.968L333.27 350.902H336.693L347.994 376.916H344.636L341.988 370.654H327.974L325.326 376.916ZM334.562 355.098L329.201 367.75H340.761L335.401 355.098C335.337 354.969 335.207 354.646 335.014 354.065C334.755 354.71 334.626 355.033 334.562 355.098Z" fill="#C7C7C7" fill-opacity="0.501961"/>
<path d="M352.257 357.357C352.257 355.162 353.096 353.484 354.84 352.257C356.584 351.031 358.65 350.45 361.169 350.45C364.204 350.45 366.852 351.095 369.048 352.322V355.42C366.852 354 364.333 353.355 361.427 353.355C357.423 353.355 355.421 354.646 355.421 357.163C355.421 358.196 355.809 359.035 356.584 359.745C357.359 360.455 358.327 361.036 359.425 361.359C360.588 361.746 361.815 362.134 363.171 362.65C364.527 363.102 365.754 363.618 366.917 364.135C368.079 364.651 368.983 365.426 369.758 366.459C370.533 367.491 370.921 368.718 370.921 370.203C370.921 371.429 370.662 372.526 370.146 373.495C369.629 374.463 368.919 375.173 367.95 375.754C367.046 376.27 366.013 376.722 364.915 376.916C363.817 377.109 362.59 377.303 361.298 377.303C358.005 377.303 355.034 376.529 352.386 375.044V371.945C354.969 373.559 357.875 374.334 361.104 374.334C365.561 374.334 367.821 373.043 367.821 370.461C367.821 369.492 367.563 368.718 366.981 368.008C366.4 367.298 365.69 366.781 364.721 366.329C363.817 365.878 362.784 365.555 361.686 365.168C360.588 364.845 359.49 364.458 358.392 364.006C357.294 363.618 356.325 363.102 355.357 362.586C354.453 362.069 353.678 361.359 353.096 360.391C352.58 359.681 352.257 358.583 352.257 357.357Z" fill="#C7C7C7" fill-opacity="0.501961"/>
<path d="M374.989 350.902H396.366V353.871H387.26V376.916H384.16V353.871H375.054V350.902H374.989Z" fill="#C7C7C7" fill-opacity="0.501961"/>
<path d="M170.875 479.792C167.715 479.792 164.795 479.272 162.115 478.232C159.435 477.152 157.115 475.652 155.155 473.732C153.195 471.812 151.655 469.552 150.535 466.952C149.455 464.352 148.915 461.512 148.915 458.432C148.915 455.352 149.455 452.512 150.535 449.912C151.655 447.312 153.195 445.052 155.155 443.132C157.155 441.212 159.495 439.732 162.175 438.692C164.855 437.612 167.775 437.072 170.935 437.072C173.975 437.072 176.835 437.592 179.515 438.632C182.195 439.632 184.455 441.152 186.295 443.192L183.475 446.012C181.755 444.252 179.855 442.992 177.775 442.232C175.695 441.432 173.455 441.032 171.055 441.032C168.535 441.032 166.195 441.472 164.035 442.352C161.875 443.192 159.995 444.412 158.395 446.012C156.795 447.572 155.535 449.412 154.615 451.532C153.735 453.612 153.295 455.912 153.295 458.432C153.295 460.952 153.735 463.272 154.615 465.392C155.535 467.472 156.795 469.312 158.395 470.912C159.995 472.472 161.875 473.692 164.035 474.572C166.195 475.412 168.535 475.832 171.055 475.832C173.455 475.832 175.695 475.432 177.775 474.632C179.855 473.832 181.755 472.552 183.475 470.792L186.295 473.612C184.455 475.652 182.195 477.192 179.515 478.232C176.835 479.272 173.955 479.792 170.875 479.792ZM187.399 479.432L206.599 437.432H210.979L230.179 479.432H225.499L207.859 440.012H209.659L192.019 479.432H187.399ZM194.959 468.212L196.279 464.612H220.699L222.019 468.212H194.959ZM237.127 479.432V437.432H252.847C258.167 437.432 262.347 438.712 265.387 441.272C268.467 443.792 270.007 447.312 270.007 451.832C270.007 454.792 269.307 457.352 267.907 459.512C266.547 461.632 264.587 463.272 262.027 464.432C259.467 465.552 256.407 466.112 252.847 466.112H239.587L241.567 464.072V479.432H237.127ZM265.807 479.432L255.007 464.192H259.807L270.667 479.432H265.807ZM241.567 464.432L239.587 462.332H252.727C256.927 462.332 260.107 461.412 262.267 459.572C264.467 457.732 265.567 455.152 265.567 451.832C265.567 448.472 264.467 445.872 262.267 444.032C260.107 442.192 256.927 441.272 252.727 441.272H239.587L241.567 439.172V464.432ZM280.486 479.432V437.432H296.206C301.526 437.432 305.706 438.712 308.746 441.272C311.826 443.792 313.366 447.312 313.366 451.832C313.366 454.792 312.666 457.352 311.266 459.512C309.906 461.632 307.946 463.272 305.386 464.432C302.826 465.552 299.766 466.112 296.206 466.112H282.946L284.926 464.072V479.432H280.486ZM309.166 479.432L298.366 464.192H303.166L314.026 479.432H309.166ZM284.926 464.432L282.946 462.332H296.086C300.286 462.332 303.466 461.412 305.626 459.572C307.826 457.732 308.926 455.152 308.926 451.832C308.926 448.472 307.826 445.872 305.626 444.032C303.466 442.192 300.286 441.272 296.086 441.272H282.946L284.926 439.172V464.432ZM342.206 479.792C339.046 479.792 336.106 479.272 333.386 478.232C330.706 477.152 328.366 475.652 326.366 473.732C324.406 471.772 322.866 469.512 321.746 466.952C320.666 464.352 320.126 461.512 320.126 458.432C320.126 455.352 320.666 452.532 321.746 449.972C322.866 447.372 324.406 445.112 326.366 443.192C328.366 441.232 330.706 439.732 333.386 438.692C336.066 437.612 339.006 437.072 342.206 437.072C345.366 437.072 348.286 437.612 350.966 438.692C353.646 439.732 355.966 441.212 357.926 443.132C359.926 445.052 361.466 447.312 362.546 449.912C363.666 452.512 364.226 455.352 364.226 458.432C364.226 461.512 363.666 464.352 362.546 466.952C361.466 469.552 359.926 471.812 357.926 473.732C355.966 475.652 353.646 477.152 350.966 478.232C348.286 479.272 345.366 479.792 342.206 479.792ZM342.206 475.832C344.726 475.832 347.046 475.412 349.166 474.572C351.326 473.692 353.186 472.472 354.746 470.912C356.346 469.312 357.586 467.472 358.466 465.392C359.346 463.272 359.786 460.952 359.786 458.432C359.786 455.912 359.346 453.612 358.466 451.532C357.586 449.412 356.346 447.572 354.746 446.012C353.186 444.412 351.326 443.192 349.166 442.352C347.046 441.472 344.726 441.032 342.206 441.032C339.686 441.032 337.346 441.472 335.186 442.352C333.026 443.192 331.146 444.412 329.546 446.012C327.986 447.572 326.746 449.412 325.826 451.532C324.946 453.612 324.506 455.912 324.506 458.432C324.506 460.912 324.946 463.212 325.826 465.332C326.746 467.452 327.986 469.312 329.546 470.912C331.146 472.472 333.026 473.692 335.186 474.572C337.346 475.412 339.686 475.832 342.206 475.832ZM381.752 479.432V441.272H366.992V437.432H400.952V441.272H386.192V479.432H381.752ZM18.463 552.792C15.343 552.792 12.343 552.292 9.46297 551.292C6.62297 550.252 4.42297 548.932 2.86297 547.332L4.60297 543.912C6.08297 545.352 8.06297 546.572 10.543 547.572C13.063 548.532 15.703 549.012 18.463 549.012C21.103 549.012 23.243 548.692 24.883 548.052C26.563 547.372 27.783 546.472 28.543 545.352C29.343 544.232 29.743 542.992 29.743 541.632C29.743 539.992 29.263 538.672 28.303 537.672C27.383 536.672 26.163 535.892 24.643 535.332C23.123 534.732 21.443 534.212 19.603 533.772C17.763 533.332 15.923 532.872 14.083 532.392C12.243 531.872 10.543 531.192 8.98297 530.352C7.46297 529.512 6.22297 528.412 5.26297 527.052C4.34297 525.652 3.88297 523.832 3.88297 521.592C3.88297 519.512 4.42297 517.612 5.50297 515.892C6.62297 514.132 8.32297 512.732 10.603 511.692C12.883 510.612 15.803 510.072 19.363 510.072C21.723 510.072 24.063 510.412 26.383 511.092C28.703 511.732 30.703 512.632 32.383 513.792L30.883 517.332C29.083 516.132 27.163 515.252 25.123 514.692C23.123 514.132 21.183 513.852 19.303 513.852C16.783 513.852 14.703 514.192 13.063 514.872C11.423 515.552 10.203 516.472 9.40297 517.632C8.64297 518.752 8.26297 520.032 8.26297 521.472C8.26297 523.112 8.72297 524.432 9.64297 525.432C10.603 526.432 11.843 527.212 13.363 527.772C14.923 528.332 16.623 528.832 18.463 529.272C20.303 529.712 22.123 530.192 23.923 530.712C25.763 531.232 27.443 531.912 28.963 532.752C30.523 533.552 31.763 534.632 32.683 535.992C33.643 537.352 34.123 539.132 34.123 541.332C34.123 543.372 33.563 545.272 32.443 547.032C31.323 548.752 29.603 550.152 27.283 551.232C25.003 552.272 22.063 552.792 18.463 552.792ZM62.037 552.792C58.877 552.792 55.957 552.272 53.277 551.232C50.597 550.152 48.277 548.652 46.317 546.732C44.357 544.812 42.817 542.552 41.697 539.952C40.617 537.352 40.077 534.512 40.077 531.432C40.077 528.352 40.617 525.512 41.697 522.912C42.817 520.312 44.357 518.052 46.317 516.132C48.317 514.212 50.657 512.732 53.337 511.692C56.017 510.612 58.937 510.072 62.097 510.072C65.137 510.072 67.997 510.592 70.677 511.632C73.357 512.632 75.617 514.152 77.457 516.192L74.637 519.012C72.917 517.252 71.017 515.992 68.937 515.232C66.857 514.432 64.617 514.032 62.217 514.032C59.697 514.032 57.357 514.472 55.197 515.352C53.037 516.192 51.157 517.412 49.557 519.012C47.957 520.572 46.697 522.412 45.777 524.532C44.897 526.612 44.457 528.912 44.457 531.432C44.457 533.952 44.897 536.272 45.777 538.392C46.697 540.472 47.957 542.312 49.557 543.912C51.157 545.472 53.037 546.692 55.197 547.572C57.357 548.412 59.697 548.832 62.217 548.832C64.617 548.832 66.857 548.432 68.937 547.632C71.017 546.832 72.917 545.552 74.637 543.792L77.457 546.612C75.617 548.652 73.357 550.192 70.677 551.232C67.997 552.272 65.117 552.792 62.037 552.792ZM86.3361 552.432V510.432H102.056C107.376 510.432 111.556 511.712 114.596 514.272C117.676 516.792 119.216 520.312 119.216 524.832C119.216 527.792 118.516 530.352 117.116 532.512C115.756 534.632 113.796 536.272 111.236 537.432C108.676 538.552 105.616 539.112 102.056 539.112H88.7961L90.7761 537.072V552.432H86.3361ZM115.016 552.432L104.216 537.192H109.016L119.876 552.432H115.016ZM90.7761 537.432L88.7961 535.332H101.936C106.136 535.332 109.316 534.412 111.476 532.572C113.676 530.732 114.776 528.152 114.776 524.832C114.776 521.472 113.676 518.872 111.476 517.032C109.316 515.192 106.136 514.272 101.936 514.272H88.7961L90.7761 512.172V537.432ZM129.695 552.432V510.432H134.135V552.432H129.695ZM147.801 552.432V510.432H163.521C167.081 510.432 170.141 511.012 172.701 512.172C175.261 513.292 177.221 514.932 178.581 517.092C179.981 519.212 180.681 521.792 180.681 524.832C180.681 527.792 179.981 530.352 178.581 532.512C177.221 534.632 175.261 536.272 172.701 537.432C170.141 538.592 167.081 539.172 163.521 539.172H150.261L152.241 537.072V552.432H147.801ZM152.241 537.432L150.261 535.272H163.401C167.601 535.272 170.781 534.372 172.941 532.572C175.141 530.732 176.241 528.152 176.241 524.832C176.241 521.472 175.141 518.872 172.941 517.032C170.781 515.192 167.601 514.272 163.401 514.272H150.261L152.241 512.172V537.432ZM196.742 552.432V514.272H181.982V510.432H215.942V514.272H201.182V552.432H196.742ZM223.035 552.432V510.432H227.475V552.432H223.035ZM241.141 552.432V510.432H244.801L273.781 546.912H271.861V510.432H276.241V552.432H272.581L243.661 515.952H245.581V552.432H241.141ZM308.369 552.792C305.169 552.792 302.209 552.272 299.489 551.232C296.809 550.152 294.469 548.652 292.469 546.732C290.509 544.812 288.969 542.552 287.849 539.952C286.769 537.352 286.229 534.512 286.229 531.432C286.229 528.352 286.769 525.512 287.849 522.912C288.969 520.312 290.529 518.052 292.529 516.132C294.529 514.212 296.869 512.732 299.549 511.692C302.269 510.612 305.229 510.072 308.429 510.072C311.629 510.072 314.549 510.572 317.189 511.572C319.869 512.572 322.149 514.092 324.029 516.132L321.269 518.952C319.509 517.192 317.569 515.932 315.449 515.172C313.329 514.412 311.049 514.032 308.609 514.032C306.009 514.032 303.609 514.472 301.409 515.352C299.249 516.192 297.349 517.412 295.709 519.012C294.109 520.572 292.849 522.412 291.929 524.532C291.049 526.612 290.609 528.912 290.609 531.432C290.609 533.912 291.049 536.212 291.929 538.332C292.849 540.452 294.109 542.312 295.709 543.912C297.349 545.472 299.249 546.692 301.409 547.572C303.609 548.412 305.989 548.832 308.549 548.832C310.949 548.832 313.209 548.472 315.329 547.752C317.489 547.032 319.469 545.812 321.269 544.092L323.789 547.452C321.789 549.212 319.449 550.552 316.769 551.472C314.089 552.352 311.289 552.792 308.369 552.792ZM323.789 547.452L319.529 546.912V531.432H323.789V547.452ZM370.479 552.792C367.279 552.792 364.319 552.272 361.599 551.232C358.919 550.152 356.579 548.652 354.579 546.732C352.619 544.812 351.079 542.552 349.959 539.952C348.879 537.352 348.339 534.512 348.339 531.432C348.339 528.352 348.879 525.512 349.959 522.912C351.079 520.312 352.639 518.052 354.639 516.132C356.639 514.212 358.979 512.732 361.659 511.692C364.379 510.612 367.339 510.072 370.539 510.072C373.739 510.072 376.659 510.572 379.299 511.572C381.979 512.572 384.259 514.092 386.139 516.132L383.379 518.952C381.619 517.192 379.679 515.932 377.559 515.172C375.439 514.412 373.159 514.032 370.719 514.032C368.119 514.032 365.719 514.472 363.519 515.352C361.359 516.192 359.459 517.412 357.819 519.012C356.219 520.572 354.959 522.412 354.039 524.532C353.159 526.612 352.719 528.912 352.719 531.432C352.719 533.912 353.159 536.212 354.039 538.332C354.959 540.452 356.219 542.312 357.819 543.912C359.459 545.472 361.359 546.692 363.519 547.572C365.719 548.412 368.099 548.832 370.659 548.832C373.059 548.832 375.319 548.472 377.439 547.752C379.599 547.032 381.579 545.812 383.379 544.092L385.899 547.452C383.899 549.212 381.559 550.552 378.879 551.472C376.199 552.352 373.399 552.792 370.479 552.792ZM385.899 547.452L381.639 546.912V531.432H385.899V547.452ZM415.385 552.792C410.025 552.792 405.805 551.252 402.725 548.172C399.645 545.092 398.105 540.532 398.105 534.492V510.432H402.545V534.312C402.545 539.272 403.665 542.932 405.905 545.292C408.145 547.652 411.305 548.832 415.385 548.832C419.505 548.832 422.685 547.652 424.925 545.292C427.165 542.932 428.285 539.272 428.285 534.312V510.432H432.605V534.492C432.605 540.532 431.065 545.092 427.985 548.172C424.945 551.252 420.745 552.792 415.385 552.792ZM445.985 552.432V510.432H450.425V552.432H445.985ZM464.09 552.432V510.432H481.19C485.67 510.432 489.59 511.332 492.95 513.132C496.35 514.892 498.99 517.352 500.87 520.512C502.75 523.672 503.69 527.312 503.69 531.432C503.69 535.552 502.75 539.192 500.87 542.352C498.99 545.512 496.35 547.992 492.95 549.792C489.59 551.552 485.67 552.432 481.19 552.432H464.09ZM468.53 548.592H480.95C484.67 548.592 487.89 547.872 490.61 546.432C493.37 544.952 495.51 542.932 497.03 540.372C498.55 537.772 499.31 534.792 499.31 531.432C499.31 528.032 498.55 525.052 497.03 522.492C495.51 519.932 493.37 517.932 490.61 516.492C487.89 515.012 484.67 514.272 480.95 514.272H468.53V548.592ZM513.66 552.432V510.432H542.46V514.272H518.1V548.592H543.36V552.432H513.66ZM517.62 532.992V529.212H539.82V532.992H517.62Z" fill="#F5F5F7"/>
</svg>
